<svg width="2500" height="1000" viewBox="0 0 2500 1000" fill="none" xmlns="http://www.w3.org/2000/svg">
<g clip-path="url(#clip0_118_25)">
<path d="M2115.6 233.095V79.955H1687.07L1616.52 591.365L1546.82 79.955H1392.28L1409.55 216.515C1391.74 181.515 1328.49 79.955 1189.24 79.955C1188.32 79.895 1034.52 79.955 1034.52 79.955L1033.88 825.375L921.265 79.955L718.845 79.895L602.325 852.23L602.39 79.955H408.63L338.805 513.795L270.785 79.955H76.995V919.615H229.61V514.895L299.04 919.615H380.16L448.61 514.895V919.615H742.8L760.59 790.465H879.03L896.82 919.615L1185.67 919.8H1185.89V919.615H1186.24V647.095L1221.61 641.975L1294.92 919.8H1444.34L1444.28 919.615H1444.7L1348.51 594.065C1397.21 558.17 1452.27 467.17 1437.62 380.075V380.045C1437.8 381.175 1528.44 920.175 1528.44 920.175L1706.11 919.625L1827.51 158.61V919.625H2115.59V768.63H1978.87V576.095H2115.59V422.795H1978.87V233.095H2115.6V233.095ZM778.565 657.35L820.5 298.34L863.95 657.35H778.565ZM1222.11 491.575C1210.39 497.19 1198.18 500 1186.24 500.03V229.98C1186.43 229.98 1186.71 229.95 1187.01 229.95C1198.91 229.86 1288.03 233.52 1288.03 363.495C1288.03 431.485 1257.73 474.365 1222.11 491.575V491.575ZM2423.04 768.49V919.43H2141.97V79.835H2293.33V768.49H2423.04Z" fill="white"/>
</g>
<defs>
<clipPath id="clip0_118_25">
<rect width="2500" height="1000" fill="white"/>
</clipPath>
</defs>
</svg>
